<svg width="192" height="192" viewBox="0 0 192 192" fill="none" xmlns="http://www.w3.org/2000/svg">
<path d="M155.373 127.133C137.578 127.133 128.681 114.389 128.681 88.9004V35.1626C128.681 11.8927 138.876 0.257812 159.267 0.257812C167.668 0.257812 174.111 1.95703 178.595 5.35547C183.079 8.70671 186.171 13.6156 187.87 20.082C189.569 26.5485 190.419 34.431 190.419 43.7295H166.063V32.6846C166.063 29.9941 165.686 27.7521 164.931 25.9585C164.223 24.1177 162.712 23.1973 160.399 23.1973C157.52 23.1973 155.609 24.1649 154.665 26.1001C153.768 28.0353 153.319 30.1593 153.319 32.4722V92.8652C153.319 96.2165 153.744 98.9541 154.594 101.078C155.491 103.155 157.213 104.193 159.762 104.193C162.405 104.193 164.152 103.155 165.001 101.078C165.898 98.9541 166.347 96.1693 166.347 92.7236V74.9526H159.691V53.4292H190.136V126H180.153L175.905 115.521C171.562 123.262 164.718 127.133 155.373 127.133Z" fill="white"/>
<path d="M67.4375 126L96.4658 0.89502H122.237L93.1382 126H67.4375Z" fill="white"/>
<path d="M1.52246 126V1.39062H35.2944C44.3569 1.39062 50.9414 3.60905 55.0479 8.0459C59.2015 12.4355 61.2783 19.7044 61.2783 29.8525V35.3042C61.2783 41.1571 60.2163 45.9007 58.0923 49.5352C56.0155 53.1696 52.8294 55.5532 48.5342 56.686C54.151 58.1021 57.9035 61.4297 59.7915 66.6689C61.7267 71.861 62.6943 78.2095 62.6943 85.7144C62.6943 93.7856 61.9391 100.842 60.4287 106.884C58.9183 112.925 56.1807 117.622 52.2158 120.973C48.251 124.324 42.6105 126 35.2944 126H1.52246ZM25.8779 48.3315H30.9756C33.2884 48.3315 34.7752 47.4347 35.436 45.6411C36.0968 43.8475 36.4272 41.6999 36.4272 39.1982V26.6665C36.4272 22.6545 34.6572 20.6484 31.1172 20.6484H25.8779V48.3315ZM28.356 104.052C34.8224 104.052 38.0557 100.984 38.0557 94.8477V79.2715C38.0557 75.7314 37.5129 72.9466 36.4272 70.917C35.3888 68.8402 33.4064 67.8018 30.48 67.8018H25.8779V103.91C26.9163 104.005 27.7423 104.052 28.356 104.052Z" fill="white"/>
<path d="M185.047 191.492C182.074 191.492 180.064 190.867 179.018 189.616C177.993 188.344 177.48 186.406 177.48 183.802V155.04H174.373V146.642H177.48V136.859H188.185V146.642H191.292V155.04H188.185V181.218C188.185 181.977 188.308 182.51 188.554 182.817C188.8 183.125 189.272 183.279 189.969 183.279C190.461 183.279 190.902 183.238 191.292 183.156V190.662C191.046 190.744 190.277 190.897 188.985 191.123C187.693 191.369 186.38 191.492 185.047 191.492Z" fill="white"/>
<path d="M158.5 191.492C153.332 191.492 149.661 190.169 147.487 187.524C145.333 184.878 144.257 180.992 144.257 175.865V161.653C144.257 157.798 144.667 154.588 145.487 152.025C146.308 149.461 147.743 147.544 149.794 146.272C151.845 145.001 154.695 144.365 158.346 144.365C160.889 144.365 163.165 144.816 165.175 145.719C167.205 146.621 168.805 147.944 169.974 149.687C171.143 151.43 171.727 153.563 171.727 156.085V163.13H160.499V156.67C160.499 155.604 160.345 154.711 160.038 153.994C159.73 153.255 159.063 152.886 158.038 152.886C156.233 152.886 155.331 154.168 155.331 156.731V179.095C155.331 180.039 155.536 180.91 155.946 181.71C156.356 182.489 157.033 182.879 157.977 182.879C158.94 182.879 159.607 182.5 159.976 181.741C160.366 180.961 160.561 180.059 160.561 179.034V171.282H171.727V179.341C171.727 181.884 171.153 184.068 170.004 185.894C168.876 187.698 167.318 189.083 165.329 190.046C163.339 191.01 161.063 191.492 158.5 191.492Z" fill="white"/>
<path d="M122.57 191.492C120.007 191.492 118.048 190.897 116.695 189.708C115.362 188.519 114.449 186.888 113.957 184.817C113.465 182.746 113.219 180.397 113.219 177.772C113.219 174.963 113.496 172.666 114.049 170.882C114.603 169.077 115.546 167.601 116.879 166.452C118.233 165.304 120.089 164.33 122.447 163.53L129.276 161.192V156.455C129.276 153.973 128.466 152.732 126.846 152.732C125.37 152.732 124.631 153.737 124.631 155.747V158.516H113.926C113.906 158.352 113.896 158.146 113.896 157.9C113.896 157.634 113.896 157.336 113.896 157.008C113.896 152.415 114.972 149.164 117.125 147.257C119.299 145.329 122.734 144.365 127.431 144.365C129.892 144.365 132.096 144.806 134.044 145.688C135.993 146.549 137.531 147.831 138.659 149.533C139.807 151.235 140.381 153.337 140.381 155.839V191H129.43V185.524C128.897 187.452 128.015 188.929 126.785 189.954C125.554 190.979 124.149 191.492 122.57 191.492ZM126.908 182.94C127.81 182.94 128.425 182.561 128.753 181.802C129.082 181.043 129.246 180.223 129.246 179.341V166.483C127.728 167.098 126.549 167.877 125.708 168.821C124.867 169.744 124.447 171.107 124.447 172.912V178.849C124.447 181.577 125.267 182.94 126.908 182.94Z" fill="white"/>
<path d="M104.389 191.492C101.416 191.492 99.4058 190.867 98.3599 189.616C97.3345 188.344 96.8218 186.406 96.8218 183.802V155.04H93.7148V146.642H96.8218V136.859H107.527V146.642H110.634V155.04H107.527V181.218C107.527 181.977 107.65 182.51 107.896 182.817C108.142 183.125 108.614 183.279 109.311 183.279C109.803 183.279 110.244 183.238 110.634 183.156V190.662C110.388 190.744 109.619 190.897 108.327 191.123C107.035 191.369 105.722 191.492 104.389 191.492Z" fill="white"/>
<path d="M63.4766 191V144.857H74.4893V150.733C74.8994 148.969 75.6582 147.472 76.7656 146.242C77.8936 144.991 79.4521 144.365 81.4414 144.365C84.6406 144.365 86.958 145.35 88.3936 147.318C89.8496 149.287 90.5776 151.984 90.5776 155.409V191H79.7188V156.547C79.7188 155.645 79.5342 154.814 79.165 154.055C78.7959 153.276 78.1602 152.886 77.2578 152.886C76.417 152.886 75.7915 153.184 75.3813 153.778C74.9917 154.353 74.7456 155.081 74.6431 155.962C74.5405 156.824 74.4893 157.685 74.4893 158.546V191H63.4766Z" fill="white"/>
<path d="M45.5732 191.492C36.3857 191.492 31.792 186.724 31.792 177.188V158.669C31.792 154.322 33.0122 150.856 35.4526 148.272C37.8931 145.667 41.2666 144.365 45.5732 144.365C49.9004 144.365 53.2842 145.667 55.7246 148.272C58.165 150.856 59.3853 154.322 59.3853 158.669V177.188C59.3853 186.724 54.7812 191.492 45.5732 191.492ZM45.5732 183.002C46.4961 183.002 47.1523 182.674 47.542 182.018C47.9521 181.341 48.1572 180.49 48.1572 179.464V156.916C48.1572 154.229 47.2959 152.886 45.5732 152.886C43.8506 152.886 42.9893 154.229 42.9893 156.916V179.464C42.9893 180.49 43.1841 181.341 43.5737 182.018C43.9839 182.674 44.6504 183.002 45.5732 183.002Z" fill="white"/>
<path d="M15.0884 191.492C9.92041 191.492 6.24951 190.169 4.07568 187.524C1.92236 184.878 0.845703 180.992 0.845703 175.865V161.653C0.845703 157.798 1.25586 154.588 2.07617 152.025C2.89648 149.461 4.33203 147.544 6.38281 146.272C8.43359 145.001 11.2842 144.365 14.9346 144.365C17.4775 144.365 19.7539 144.816 21.7637 145.719C23.7939 146.621 25.3936 147.944 26.5625 149.687C27.7314 151.43 28.3159 153.563 28.3159 156.085V163.13H17.0879V156.67C17.0879 155.604 16.9341 154.711 16.6265 153.994C16.3188 153.255 15.6523 152.886 14.627 152.886C12.8223 152.886 11.9199 154.168 11.9199 156.731V179.095C11.9199 180.039 12.125 180.91 12.5352 181.71C12.9453 182.489 13.6221 182.879 14.5654 182.879C15.5293 182.879 16.1958 182.5 16.5649 181.741C16.9546 180.961 17.1494 180.059 17.1494 179.034V171.282H28.3159V179.341C28.3159 181.884 27.7417 184.068 26.5933 185.894C25.4653 187.698 23.9067 189.083 21.9175 190.046C19.9282 191.01 17.6519 191.492 15.0884 191.492Z" fill="white"/>
</svg>
