<svg width="191" height="192" viewBox="0 0 191 192" fill="none" xmlns="http://www.w3.org/2000/svg">
<path d="M154.527 126.875C136.732 126.875 127.835 114.131 127.835 88.6426V34.9048C127.835 11.6349 138.03 0 158.421 0C166.823 0 173.265 1.69922 177.75 5.09766C182.234 8.44889 185.325 13.3577 187.024 19.8242C188.724 26.2907 189.573 34.1732 189.573 43.4717H165.218V32.4268C165.218 29.7363 164.84 27.4943 164.085 25.7007C163.377 23.8599 161.867 22.9395 159.554 22.9395C156.674 22.9395 154.763 23.9071 153.819 25.8423C152.922 27.7775 152.474 29.9015 152.474 32.2144V92.6074C152.474 95.9587 152.898 98.6963 153.748 100.82C154.645 102.897 156.368 103.936 158.917 103.936C161.56 103.936 163.306 102.897 164.156 100.82C165.053 98.6963 165.501 95.9115 165.501 92.4658V74.6948H158.846V53.1714H189.29V125.742H179.307L175.059 115.264C170.717 123.005 163.873 126.875 154.527 126.875Z" fill="black"/>
<path d="M66.5918 125.742L95.6201 0.637207H121.392L92.2925 125.742H66.5918Z" fill="black"/>
<path d="M0.676758 125.742V1.13281H34.4487C43.5112 1.13281 50.0957 3.35124 54.2021 7.78809C58.3558 12.1777 60.4326 19.4466 60.4326 29.5947V35.0464C60.4326 40.8993 59.3706 45.6429 57.2466 49.2773C55.1698 52.9118 51.9837 55.2954 47.6885 56.4282C53.3053 57.8442 57.0578 61.1719 58.9458 66.4111C60.881 71.6032 61.8486 77.9517 61.8486 85.4565C61.8486 93.5278 61.0934 100.584 59.583 106.626C58.0726 112.668 55.335 117.364 51.3701 120.715C47.4053 124.067 41.7648 125.742 34.4487 125.742H0.676758ZM25.0322 48.0737H30.1299C32.4427 48.0737 33.9295 47.1769 34.5903 45.3833C35.2511 43.5897 35.5815 41.4421 35.5815 38.9404V26.4087C35.5815 22.3966 33.8115 20.3906 30.2715 20.3906H25.0322V48.0737ZM27.5103 103.794C33.9767 103.794 37.21 100.726 37.21 94.5898V79.0137C37.21 75.4736 36.6672 72.6888 35.5815 70.6592C34.5431 68.5824 32.5607 67.5439 29.6343 67.5439H25.0322V103.652C26.0706 103.747 26.8966 103.794 27.5103 103.794Z" fill="black"/>
<path d="M184.202 191.234C181.228 191.234 179.218 190.609 178.172 189.358C177.147 188.086 176.634 186.148 176.634 183.544V154.782H173.527V146.384H176.634V136.602H187.339V146.384H190.446V154.782H187.339V180.96C187.339 181.719 187.462 182.252 187.708 182.56C187.955 182.867 188.426 183.021 189.124 183.021C189.616 183.021 190.057 182.98 190.446 182.898V190.404C190.2 190.486 189.431 190.64 188.139 190.865C186.847 191.111 185.535 191.234 184.202 191.234Z" fill="black"/>
<path d="M157.654 191.234C152.486 191.234 148.815 189.912 146.641 187.266C144.488 184.621 143.411 180.734 143.411 175.607V161.396C143.411 157.54 143.821 154.331 144.642 151.767C145.462 149.204 146.897 147.286 148.948 146.015C150.999 144.743 153.85 144.107 157.5 144.107C160.043 144.107 162.319 144.559 164.329 145.461C166.359 146.363 167.959 147.686 169.128 149.429C170.297 151.172 170.881 153.305 170.881 155.828V162.872H159.653V156.412C159.653 155.346 159.5 154.454 159.192 153.736C158.884 152.998 158.218 152.628 157.192 152.628C155.388 152.628 154.485 153.91 154.485 156.474V178.837C154.485 179.781 154.69 180.652 155.101 181.452C155.511 182.231 156.188 182.621 157.131 182.621C158.095 182.621 158.761 182.242 159.13 181.483C159.52 180.704 159.715 179.801 159.715 178.776V171.024H170.881V179.083C170.881 181.626 170.307 183.811 169.159 185.636C168.031 187.44 166.472 188.825 164.483 189.789C162.494 190.752 160.217 191.234 157.654 191.234Z" fill="black"/>
<path d="M121.725 191.234C119.161 191.234 117.203 190.64 115.849 189.45C114.516 188.261 113.604 186.63 113.111 184.559C112.619 182.488 112.373 180.14 112.373 177.515C112.373 174.705 112.65 172.408 113.204 170.624C113.757 168.819 114.701 167.343 116.034 166.194C117.387 165.046 119.243 164.072 121.602 163.272L128.431 160.934V156.197C128.431 153.715 127.621 152.475 126 152.475C124.524 152.475 123.786 153.479 123.786 155.489V158.258H113.081C113.06 158.094 113.05 157.889 113.05 157.643C113.05 157.376 113.05 157.079 113.05 156.75C113.05 152.157 114.126 148.906 116.28 146.999C118.454 145.071 121.889 144.107 126.585 144.107C129.046 144.107 131.25 144.548 133.199 145.43C135.147 146.292 136.685 147.573 137.813 149.275C138.961 150.978 139.536 153.08 139.536 155.582V190.742H128.584V185.267C128.051 187.194 127.169 188.671 125.939 189.696C124.708 190.722 123.304 191.234 121.725 191.234ZM126.062 182.683C126.964 182.683 127.58 182.303 127.908 181.544C128.236 180.786 128.4 179.965 128.4 179.083V166.225C126.882 166.84 125.703 167.62 124.862 168.563C124.021 169.486 123.601 170.85 123.601 172.654V178.591C123.601 181.319 124.421 182.683 126.062 182.683Z" fill="black"/>
<path d="M103.543 191.234C100.57 191.234 98.5601 190.609 97.5142 189.358C96.4888 188.086 95.9761 186.148 95.9761 183.544V154.782H92.8691V146.384H95.9761V136.602H106.681V146.384H109.788V154.782H106.681V180.96C106.681 181.719 106.804 182.252 107.05 182.56C107.296 182.867 107.768 183.021 108.465 183.021C108.958 183.021 109.398 182.98 109.788 182.898V190.404C109.542 190.486 108.773 190.64 107.481 190.865C106.189 191.111 104.876 191.234 103.543 191.234Z" fill="black"/>
<path d="M62.6309 190.742V144.6H73.6436V150.475C74.0537 148.711 74.8125 147.214 75.9199 145.984C77.0479 144.733 78.6064 144.107 80.5957 144.107C83.7949 144.107 86.1123 145.092 87.5479 147.061C89.0039 149.029 89.7319 151.726 89.7319 155.151V190.742H78.873V156.289C78.873 155.387 78.6885 154.556 78.3193 153.797C77.9502 153.018 77.3145 152.628 76.4121 152.628C75.5713 152.628 74.9458 152.926 74.5356 153.521C74.146 154.095 73.8999 154.823 73.7974 155.705C73.6948 156.566 73.6436 157.427 73.6436 158.289V190.742H62.6309Z" fill="black"/>
<path d="M44.7275 191.234C35.54 191.234 30.9463 186.466 30.9463 176.93V158.412C30.9463 154.064 32.1665 150.598 34.6069 148.014C37.0474 145.41 40.4209 144.107 44.7275 144.107C49.0547 144.107 52.4385 145.41 54.8789 148.014C57.3193 150.598 58.5396 154.064 58.5396 158.412V176.93C58.5396 186.466 53.9355 191.234 44.7275 191.234ZM44.7275 182.744C45.6504 182.744 46.3066 182.416 46.6963 181.76C47.1064 181.083 47.3115 180.232 47.3115 179.207V156.658C47.3115 153.972 46.4502 152.628 44.7275 152.628C43.0049 152.628 42.1436 153.972 42.1436 156.658V179.207C42.1436 180.232 42.3384 181.083 42.728 181.76C43.1382 182.416 43.8047 182.744 44.7275 182.744Z" fill="black"/>
<path d="M14.2427 191.234C9.07471 191.234 5.40381 189.912 3.22998 187.266C1.07666 184.621 0 180.734 0 175.607V161.396C0 157.54 0.410156 154.331 1.23047 151.767C2.05078 149.204 3.48633 147.286 5.53711 146.015C7.58789 144.743 10.4385 144.107 14.0889 144.107C16.6318 144.107 18.9082 144.559 20.918 145.461C22.9482 146.363 24.5479 147.686 25.7168 149.429C26.8857 151.172 27.4702 153.305 27.4702 155.828V162.872H16.2422V156.412C16.2422 155.346 16.0884 154.454 15.7808 153.736C15.4731 152.998 14.8066 152.628 13.7812 152.628C11.9766 152.628 11.0742 153.91 11.0742 156.474V178.837C11.0742 179.781 11.2793 180.652 11.6895 181.452C12.0996 182.231 12.7764 182.621 13.7197 182.621C14.6836 182.621 15.3501 182.242 15.7192 181.483C16.1089 180.704 16.3037 179.801 16.3037 178.776V171.024H27.4702V179.083C27.4702 181.626 26.896 183.811 25.7476 185.636C24.6196 187.44 23.061 188.825 21.0718 189.789C19.0825 190.752 16.8062 191.234 14.2427 191.234Z" fill="black"/>
</svg>
